<svg xmlns="http://www.w3.org/2000/svg" viewBox="0 0 64 64" fill="none">
  <rect width="64" height="64" rx="14" fill="#0b0f19"/>
  <!-- Simple fox mark + upscale spark -->
  <path d="M18 38c0-8 6-14 14-14s14 6 14 14v2H18v-2z" fill="#f97316"/>
  <path d="M22 24l-6-8 10 4 6-6 6 6 10-4-6 8" fill="#fb923c"/>
  <circle cx="28" cy="34" r="2" fill="#0b0f19"/>
  <circle cx="36" cy="34" r="2" fill="#0b0f19"/>
  <path d="M30 40h4l-2 4-2-4z" fill="#0b0f19"/>
  <path d="M44 14l3 6 6 1-5 4 2 6-6-3-6 3 2-6-5-4 6-1 3-6z" fill="#a78bfa"/>
</svg>
